<?xml version="1.0" encoding="UTF-8" standalone="no"?>
<!-- Generator: Adobe Illustrator 18.0.0, SVG Export Plug-In . SVG Version: 6.00 Build 0)  -->
<!DOCTYPE svg  PUBLIC '-//W3C//DTD SVG 1.1//EN'  'http://www.w3.org/Graphics/SVG/1.1/DTD/svg11.dtd'>
<svg id="Layer_1" xmlns="http://www.w3.org/2000/svg" xml:space="preserve" viewBox="0 0 139.7 50" version="1.1" y="0px" x="0px" xmlns:xlink="http://www.w3.org/1999/xlink" enable-background="new 0 0 139.7 50">
	<path d="m0 0v50h50v-50h-50zm38 14.6c-0.4 0.7-0.8 1.4-1.3 2-0.5 0.7-0.9 1.2-1.3 1.7s-0.7 0.7-0.9 0.7h-11.2l-2.1 7.1 3.5-4.2h8.4l-5.2 6.1h-7.2l-2.6 8.9h-7l7.1-24.1h20.8c-0.3 0.6-0.6 1.1-1 1.8z" fill="#37474F"/>
		<g fill="#272727">
			<path d="m63.1 27.5v-21.4h14.4v3.7h-9.8v5h9.2v3.7h-9.2v9h-4.6z"/>
			<path d="m82.6 27.5v-21.4h4.7v21.4h-4.7z"/>
			<path d="m107.9 6.1h4.4v21.4h-3.5l-10.7-13.6v13.6h-4.4v-21.4h3.5l10.7 13.6v-13.6z"/>
			<path d="m135.1 27.5l-2-4.7h-10l-2 4.7h-4.7l9.8-21.4h3.8l9.8 21.4h-4.7zm-10.5-8.3h6.9l-3.5-8-3.4 8z"/>
		</g>
		<g fill="#999">
			<path d="m62.9 43.6v-7.8h4.8v0.8h-3.9v2.7h3.7v0.7h-3.7v3.6h-0.9z"/>
			<path d="m69.1 43.6v-7.8h0.9v7.8h-0.9z"/>
			<path d="m78 43.6h-1l-1-2.6c-0.1-0.3-0.3-0.5-0.5-0.6s-0.5-0.2-0.9-0.2h-2v3.4h-0.9v-7.8h3.3c0.8 0 1.5 0.2 1.9 0.6 0.5 0.4 0.7 0.9 0.7 1.6 0 0.5-0.1 0.9-0.4 1.3-0.3 0.3-0.7 0.6-1.2 0.7 0.2 0 0.4 0.1 0.6 0.3s0.3 0.4 0.4 0.7l1 2.6zm-3.1-4.2c1.2 0 1.8-0.5 1.8-1.5 0-0.5-0.1-0.8-0.4-1.1-0.3-0.2-0.7-0.4-1.4-0.4h-2.1v2.9h2.1z"/>
			<path d="m79 42.7l0.3-0.7c0.4 0.3 0.8 0.6 1.2 0.7s0.9 0.2 1.4 0.2c0.6 0 1.1-0.1 1.5-0.4 0.3-0.2 0.5-0.6 0.5-1 0-0.3-0.1-0.5-0.2-0.6s-0.4-0.3-0.6-0.4c-0.3-0.1-0.6-0.2-1.1-0.3-0.6-0.1-1.1-0.3-1.5-0.4-0.4-0.2-0.7-0.4-0.9-0.7s-0.4-0.7-0.4-1.1 0.1-0.8 0.4-1.2c0.2-0.3 0.6-0.6 1-0.8s0.9-0.3 1.5-0.3c0.5 0 1 0.1 1.5 0.3s0.9 0.4 1.2 0.7l-0.4 0.7c-0.4-0.3-0.7-0.5-1.1-0.7-0.4-0.1-0.8-0.2-1.2-0.2-0.6 0-1.1 0.1-1.4 0.4s-0.5 0.6-0.5 1.1c0 0.4 0.2 0.7 0.5 0.9s0.8 0.4 1.4 0.5c0.7 0.2 1.2 0.3 1.6 0.4s0.7 0.3 1 0.6 0.4 0.6 0.4 1.1c0 0.4-0.1 0.8-0.4 1.2-0.2 0.3-0.6 0.6-1 0.8s-0.9 0.3-1.5 0.3c-1.5-0.1-2.4-0.4-3.2-1.1z"/>
			<path d="m88.1 43.6v-7.1h-2.7v-0.8h6.4v0.8h-2.8v7.1h-0.9z"/>
			<path d="m97.1 43.2c-0.5-0.3-1-0.8-1.3-1.4s-0.4-1.3-0.4-2.1 0.1-1.5 0.4-2.1c0.3-0.6 0.7-1.1 1.3-1.4 0.5-0.3 1.2-0.5 1.9-0.5 0.5 0 1 0.1 1.5 0.2s0.8 0.4 1.2 0.7l-0.3 0.7c-0.4-0.3-0.7-0.6-1.1-0.7s-0.8-0.2-1.2-0.2c-0.9 0-1.5 0.3-2 0.8-0.5 0.6-0.7 1.3-0.7 2.4 0 1 0.2 1.8 0.7 2.4s1.1 0.8 2 0.8c0.4 0 0.8-0.1 1.2-0.2s0.7-0.4 1.1-0.7l0.3 0.7c-0.3 0.3-0.7 0.6-1.2 0.7s-0.9 0.2-1.5 0.2c-0.8 0.2-1.4 0-1.9-0.3z"/>
			<path d="m108.9 43.6l-0.9-2h-4l-0.9 2h-0.9l3.4-7.8h0.8l3.4 7.8h-0.9zm-4.6-2.8h3.5l-1.7-4-1.8 4z"/>
			<path d="m111 35.8h3.1c0.8 0 1.4 0.2 1.9 0.6s0.7 0.9 0.7 1.6c0 0.7-0.2 1.2-0.7 1.6s-1.1 0.6-1.9 0.6h-2.2v3.4h-0.9v-7.8zm3.1 3.6c0.6 0 1-0.1 1.3-0.4 0.3-0.2 0.4-0.6 0.4-1.1s-0.1-0.8-0.4-1.1c-0.3-0.2-0.7-0.4-1.3-0.4h-2.1v2.9h2.1z"/>
			<path d="m118.2 43.6v-7.8h0.9v7.8h-0.9z"/>
			<path d="m122.9 43.6v-7.1h-2.7v-0.8h6.4v0.8h-2.7v7.1h-1z"/>
			<path d="m132.7 43.6l-0.9-2h-4.1l-0.9 2h-0.9l3.4-7.8h0.8l3.4 7.8h-0.8zm-4.6-2.8h3.5l-1.7-4-1.8 4z"/>
			<path d="m134.8 43.6v-7.8h0.9v7.1h3.9v0.8h-4.8z"/>
		</g>
</svg>
