<?xml version="1.0" encoding="UTF-8" standalone="no"?>
<!-- Generator: Adobe Illustrator 18.0.0, SVG Export Plug-In . SVG Version: 6.00 Build 0)  -->
<!DOCTYPE svg  PUBLIC '-//W3C//DTD SVG 1.1//EN'  'http://www.w3.org/Graphics/SVG/1.1/DTD/svg11.dtd'>
<svg id="Layer_1" xmlns="http://www.w3.org/2000/svg" xml:space="preserve" viewBox="0 286.5 612.4 219" version="1.1" y="0px" x="0px" xmlns:xlink="http://www.w3.org/1999/xlink" enable-background="new 0 286.5 612.4 219">
<g fill="#707D84">
	<path d="m0 286.5v219h219v-219h-219zm166.5 63.9c-1.8 3.1-3.5 6.1-5.7 8.8-2.2 3.1-3.9 5.3-5.7 7.4-1.8 2.2-3.1 3.1-3.9 3.1h-49.1l-9.2 31.1 15.3-18.4h36.8l-22.8 26.7h-31.5l-11.4 39h-30.7l31.1-105.6h91.1c-1.3 2.7-2.6 4.9-4.3 7.9z"/>
			<path d="m276.4 407v-93.7h63.1v16.2h-42.9v21.9h40.3v16.2h-40.3v39.4h-20.2z"/>
			<path d="m361.9 407v-93.7h20.6v93.7h-20.6z"/>
			<path d="m472.7 313.2h19.3v93.8h-15.3l-46.9-59.6v59.6h-19.3v-93.7h15.3l46.9 59.6v-59.7z"/>
			<path d="m591.8 407l-8.8-20.6h-43.8l-8.8 20.6h-20.6l42.9-93.7h16.6l42.9 93.7h-20.4zm-46-36.4h30.2l-15.3-35-14.9 35z"/>
			<path d="m275.6 477.5v-34.2h21v3.5h-17.1v11.8h16.2v3.1h-16.2v15.8h-3.9z"/>
			<path d="m302.7 477.5v-34.2h3.9v34.2h-3.9z"/>
			<path d="m341.7 477.5h-4.4l-4.4-11.4c-0.4-1.3-1.3-2.2-2.2-2.6s-2.2-0.9-3.9-0.9h-8.8v14.9h-3.9v-34.2h14.5c3.5 0 6.6 0.9 8.3 2.6 2.2 1.8 3.1 3.9 3.1 7 0 2.2-0.4 3.9-1.8 5.7-1.3 1.3-3.1 2.6-5.3 3.1 0.9 0 1.8 0.4 2.6 1.3s1.3 1.8 1.8 3.1l4.4 11.4zm-13.6-18.4c5.3 0 7.9-2.2 7.9-6.6 0-2.2-0.4-3.5-1.8-4.8-1.3-0.9-3.1-1.8-6.1-1.8h-9.2v12.7h9.2v0.5z"/>
			<path d="m346.1 473.5l1.3-3.1c1.8 1.3 3.5 2.6 5.3 3.1 1.8 0.4 3.9 0.9 6.1 0.9 2.6 0 4.8-0.4 6.6-1.8 1.3-0.9 2.2-2.6 2.2-4.4 0-1.3-0.4-2.2-0.9-2.6s-1.8-1.3-2.6-1.8c-1.3-0.4-2.6-0.9-4.8-1.3-2.6-0.4-4.8-1.3-6.6-1.8-1.8-0.9-3.1-1.8-3.9-3.1-0.9-1.3-1.8-3.1-1.8-4.8s0.4-3.5 1.8-5.3c0.9-1.3 2.6-2.6 4.4-3.5s3.9-1.3 6.6-1.3c2.2 0 4.4 0.4 6.6 1.3s3.9 1.8 5.3 3.1l-1.8 3.1c-1.8-1.3-3.1-2.2-4.8-3.1-1.8-0.4-3.5-0.9-5.3-0.9-2.6 0-4.8 0.4-6.1 1.8-1.3 1.3-2.2 2.6-2.2 4.8 0 1.8 0.9 3.1 2.2 3.9 1.3 0.9 3.5 1.8 6.1 2.2 3.1 0.9 5.3 1.3 7 1.8s3.1 1.3 4.4 2.6c1.3 1.3 1.8 2.6 1.8 4.8 0 1.8-0.4 3.5-1.8 5.3-0.9 1.3-2.6 2.6-4.4 3.5s-3.9 1.3-6.6 1.3c-6.7-0.3-10.6-1.6-14.1-4.7z"/>
			<path d="m385.9 477.5v-31.1h-11.8v-3.5h28v3.5h-12.3v31.1h-3.9z"/>
			<path d="m425.4 475.7c-2.2-1.3-4.4-3.5-5.7-6.1s-1.8-5.7-1.8-9.2 0.4-6.6 1.8-9.2c1.3-2.6 3.1-4.8 5.7-6.1 2.2-1.3 5.3-2.2 8.3-2.2 2.2 0 4.4 0.4 6.6 0.9s3.5 1.8 5.3 3.1l-1.3 3.1c-1.8-1.3-3.1-2.6-4.8-3.1-1.8-0.4-3.5-0.9-5.3-0.9-3.9 0-6.6 1.3-8.8 3.5-2.2 2.6-3.1 5.7-3.1 10.5 0 4.4 0.9 7.9 3.1 10.5s4.8 3.5 8.8 3.5c1.8 0 3.5-0.4 5.3-0.9 1.8-0.4 3.1-1.8 4.8-3.1l1.3 3.1c-1.3 1.3-3.1 2.6-5.3 3.1-2.2 0.4-3.9 0.9-6.6 0.9-3.5 0.8-6.1-0.1-8.3-1.4z"/>
			<path d="m477.1 477.5l-3.9-8.8h-17.5l-3.9 8.8h-3.9l14.9-34.2h3.5l14.9 34.2h-4.1zm-20.2-12.3h15.3l-7.4-17.5-7.9 17.5z"/>
			<path d="m486.3 443.3h13.6c3.5 0 6.1 0.9 8.3 2.6s3.1 3.9 3.1 7c0 3.1-0.9 5.3-3.1 7-2.2 1.8-4.8 2.6-8.3 2.6h-9.6v14.9h-3.9v-34.1zm13.6 15.8c2.6 0 4.4-0.4 5.7-1.8 1.3-0.9 1.8-2.6 1.8-4.8s-0.4-3.5-1.8-4.8c-1.3-0.9-3.1-1.8-5.7-1.8h-9.2v12.7h9.2v0.5z"/>
			<path d="m517.8 477.5v-34.2h3.9v34.2h-3.9z"/>
			<path d="m538.4 477.5v-31.1h-11.8v-3.5h28v3.5h-11.8v31.1h-4.4z"/>
			<path d="m581.3 477.5l-3.9-8.8h-18l-3.9 8.8h-3.9l14.9-34.2h3.5l14.9 34.2h-3.6zm-20.1-12.3h15.3l-7.4-17.5-7.9 17.5z"/>
			<path d="m590.5 477.5v-34.2h3.9v31.1h17.1v3.5h-21v-0.4z"/>
</g>
</svg>
