<?xml version="1.0" encoding="utf-8"?>
<!-- Generator: Adobe Illustrator 18.0.0, SVG Export Plug-In . SVG Version: 6.00 Build 0)  -->
<!DOCTYPE svg PUBLIC "-//W3C//DTD SVG 1.1//EN" "http://www.w3.org/Graphics/SVG/1.1/DTD/svg11.dtd">
<svg version="1.1" xmlns="http://www.w3.org/2000/svg" xmlns:xlink="http://www.w3.org/1999/xlink" x="0px" y="0px"
	 viewBox="0 0 19.4 26.3" enable-background="new 0 0 19.4 26.3" xml:space="preserve">
<g id="Background">
</g>
<g id="Objects">
	<g id="Design_1_">
		<g>
			<path fill="#E74C3C" d="M9.7,6.4c-1.8,0-3.3,1.5-3.3,3.3c0,1.8,1.5,3.3,3.3,3.3c1.8,0,3.3-1.5,3.3-3.3C13,7.9,11.5,6.4,9.7,6.4z
				 M9.7,0C4.3,0,0,4.3,0,9.7c0,6.7,9.7,16.6,9.7,16.6s9.7-9.9,9.7-16.6C19.4,4.3,15,0,9.7,0z M9.7,15.3C6.6,15.3,4,12.8,4,9.7
				C4,6.6,6.6,4,9.7,4c3.1,0,5.7,2.5,5.7,5.6C15.3,12.8,12.8,15.3,9.7,15.3z"/>
		</g>
	</g>
</g>
</svg>
